<mxfile host="app.diagrams.net" modified="2023-12-30T12:35:01.132Z" agent="Mozilla/5.0 (Windows NT 10.0; Win64; x64; rv:109.0) Gecko/20100101 Firefox/118.0" etag="X3jETc8OKMWcmYc-nHiL" version="22.1.16" type="github">
  <diagram name="Page-1" id="lyXgj-PjZWrXohmxZ8p7">
    <mxGraphModel dx="1674" dy="754" grid="1" gridSize="10" guides="1" tooltips="1" connect="1" arrows="1" fold="1" page="1" pageScale="1" pageWidth="850" pageHeight="1100" math="0" shadow="0">
      <root>
        <mxCell id="0" />
        <mxCell id="1" parent="0" />
        <mxCell id="r-hSF0P090JxXrupo4vG-1" value="" style="rounded=1;whiteSpace=wrap;html=1;" vertex="1" parent="1">
          <mxGeometry x="360" y="360" width="90" height="60" as="geometry" />
        </mxCell>
      </root>
    </mxGraphModel>
  </diagram>
</mxfile>
